<?xml version="1.0" encoding="UTF-8" standalone="no"?>
<!DOCTYPE svg PUBLIC "-//W3C//DTD SVG 1.1//EN"
 "http://www.w3.org/Graphics/SVG/1.1/DTD/svg11.dtd">
<!-- Generated by graphviz version 2.26.3 (20100126.1600)
 -->
<!-- Title: G Pages: 1 -->
<svg width="1338pt" height="342pt"
 viewBox="0.00 0.00 1338.00 342.00" xmlns="http://www.w3.org/2000/svg" xmlns:xlink="http://www.w3.org/1999/xlink">
<g id="graph1" class="graph" transform="scale(1 1) rotate(0) translate(4 338)">
<title>G</title>
<polygon fill="white" stroke="white" points="-4,5 -4,-338 1335,-338 1335,5 -4,5"/>
<!-- let(19496848) -->
<g id="node1" class="node"><title>let(19496848)</title>
<ellipse fill="none" stroke="black" cx="785" cy="-315" rx="82.2301" ry="18.3848"/>
<text text-anchor="middle" x="785" y="-311.4" font-family="Times Roman,serif" font-size="14.00">let(19496848)</text>
</g>
<!-- proc(20111888) -->
<g id="node3" class="node"><title>proc(20111888)</title>
<ellipse fill="none" stroke="black" cx="575" cy="-241" rx="90.0096" ry="18.3848"/>
<text text-anchor="middle" x="575" y="-237.4" font-family="Times Roman,serif" font-size="14.00">proc(20111888)</text>
</g>
<!-- let(19496848)&#45;&#45;proc(20111888) -->
<g id="edge2" class="edge"><title>let(19496848)&#45;&#45;proc(20111888)</title>
<path fill="none" stroke="black" d="M740.721,-299.397C705.463,-286.973 656.287,-269.644 620.67,-257.093"/>
</g>
<!-- f_call(20111696) -->
<g id="node23" class="node"><title>f_call(20111696)</title>
<ellipse fill="none" stroke="black" cx="995" cy="-241" rx="94.7523" ry="18.3848"/>
<text text-anchor="middle" x="995" y="-237.4" font-family="Times Roman,serif" font-size="14.00">f_call(20111696)</text>
</g>
<!-- let(19496848)&#45;&#45;f_call(20111696) -->
<g id="edge22" class="edge"><title>let(19496848)&#45;&#45;f_call(20111696)</title>
<path fill="none" stroke="black" d="M829.279,-299.397C864.417,-287.015 913.377,-269.762 948.965,-257.222"/>
</g>
<!-- sayHello(19514544) -->
<g id="node5" class="node"><title>sayHello(19514544)</title>
<ellipse fill="none" stroke="black" cx="111" cy="-167" rx="111.016" ry="18.3848"/>
<text text-anchor="middle" x="111" y="-163.4" font-family="Times Roman,serif" font-size="14.00">sayHello(19514544)</text>
</g>
<!-- proc(20111888)&#45;&#45;sayHello(19514544) -->
<g id="edge4" class="edge"><title>proc(20111888)&#45;&#45;sayHello(19514544)</title>
<path fill="none" stroke="black" d="M503.77,-229.64C419.429,-216.189 279.319,-193.844 191.229,-179.795"/>
</g>
<!-- type_field(19456464) -->
<g id="node7" class="node"><title>type_field(19456464)</title>
<ellipse fill="none" stroke="black" cx="357" cy="-167" rx="116.88" ry="18.3848"/>
<text text-anchor="middle" x="357" y="-163.4" font-family="Times Roman,serif" font-size="14.00">type_field(19456464)</text>
</g>
<!-- proc(20111888)&#45;&#45;type_field(19456464) -->
<g id="edge6" class="edge"><title>proc(20111888)&#45;&#45;type_field(19456464)</title>
<path fill="none" stroke="black" d="M528.234,-225.125C492.452,-212.979 443.216,-196.266 406.721,-183.878"/>
</g>
<!-- int(19497208) -->
<g id="node13" class="node"><title>int(19497208)</title>
<ellipse fill="none" stroke="black" cx="575" cy="-167" rx="82.939" ry="18.3848"/>
<text text-anchor="middle" x="575" y="-163.4" font-family="Times Roman,serif" font-size="14.00">int(19497208)</text>
</g>
<!-- proc(20111888)&#45;&#45;int(19497208) -->
<g id="edge12" class="edge"><title>proc(20111888)&#45;&#45;int(19497208)</title>
<path fill="none" stroke="black" d="M575,-222.327C575,-211.109 575,-196.884 575,-185.667"/>
</g>
<!-- f_call(20112016) -->
<g id="node15" class="node"><title>f_call(20112016)</title>
<ellipse fill="none" stroke="black" cx="771" cy="-167" rx="94.7523" ry="18.3848"/>
<text text-anchor="middle" x="771" y="-163.4" font-family="Times Roman,serif" font-size="14.00">f_call(20112016)</text>
</g>
<!-- proc(20111888)&#45;&#45;f_call(20112016) -->
<g id="edge14" class="edge"><title>proc(20111888)&#45;&#45;f_call(20112016)</title>
<path fill="none" stroke="black" d="M618.499,-224.577C650.867,-212.357 694.865,-195.745 727.284,-183.505"/>
</g>
<!-- name(19514592) -->
<g id="node9" class="node"><title>name(19514592)</title>
<ellipse fill="none" stroke="black" cx="148" cy="-93" rx="96.8736" ry="18.3848"/>
<text text-anchor="middle" x="148" y="-89.4" font-family="Times Roman,serif" font-size="14.00">name(19514592)</text>
</g>
<!-- type_field(19456464)&#45;&#45;name(19514592) -->
<g id="edge8" class="edge"><title>type_field(19456464)&#45;&#45;name(19514592)</title>
<path fill="none" stroke="black" d="M309.051,-150.023C274.584,-137.819 228.371,-121.457 194.289,-109.389"/>
</g>
<!-- string(19514640) -->
<g id="node11" class="node"><title>string(19514640)</title>
<ellipse fill="none" stroke="black" cx="361" cy="-93" rx="97.7889" ry="18.3848"/>
<text text-anchor="middle" x="361" y="-89.4" font-family="Times Roman,serif" font-size="14.00">string(19514640)</text>
</g>
<!-- type_field(19456464)&#45;&#45;string(19514640) -->
<g id="edge10" class="edge"><title>type_field(19456464)&#45;&#45;string(19514640)</title>
<path fill="none" stroke="black" d="M358.009,-148.327C358.616,-137.109 359.385,-122.884 359.991,-111.667"/>
</g>
<!-- print(19514688) -->
<g id="node17" class="node"><title>print(19514688)</title>
<ellipse fill="none" stroke="black" cx="672" cy="-93" rx="92.839" ry="18.3848"/>
<text text-anchor="middle" x="672" y="-89.4" font-family="Times Roman,serif" font-size="14.00">print(19514688)</text>
</g>
<!-- f_call(20112016)&#45;&#45;print(19514688) -->
<g id="edge16" class="edge"><title>f_call(20112016)&#45;&#45;print(19514688)</title>
<path fill="none" stroke="black" d="M747.035,-149.087C731.584,-137.538 711.562,-122.572 696.088,-111.005"/>
</g>
<!-- var(20111504) -->
<g id="node19" class="node"><title>var(20111504)</title>
<ellipse fill="none" stroke="black" cx="869" cy="-93" rx="85.7684" ry="18.3848"/>
<text text-anchor="middle" x="869" y="-89.4" font-family="Times Roman,serif" font-size="14.00">var(20111504)</text>
</g>
<!-- f_call(20112016)&#45;&#45;var(20111504) -->
<g id="edge18" class="edge"><title>f_call(20112016)&#45;&#45;var(20111504)</title>
<path fill="none" stroke="black" d="M794.973,-148.898C810.273,-137.345 830.023,-122.432 845.274,-110.916"/>
</g>
<!-- name(19514736) -->
<g id="node21" class="node"><title>name(19514736)</title>
<ellipse fill="none" stroke="black" cx="869" cy="-19" rx="96.8736" ry="18.3848"/>
<text text-anchor="middle" x="869" y="-15.4" font-family="Times Roman,serif" font-size="14.00">name(19514736)</text>
</g>
<!-- var(20111504)&#45;&#45;name(19514736) -->
<g id="edge20" class="edge"><title>var(20111504)&#45;&#45;name(19514736)</title>
<path fill="none" stroke="black" d="M869,-74.3267C869,-63.1088 869,-48.8841 869,-37.6674"/>
</g>
<!-- sayHello(19514448) -->
<g id="node25" class="node"><title>sayHello(19514448)</title>
<ellipse fill="none" stroke="black" cx="995" cy="-167" rx="111.016" ry="18.3848"/>
<text text-anchor="middle" x="995" y="-163.4" font-family="Times Roman,serif" font-size="14.00">sayHello(19514448)</text>
</g>
<!-- f_call(20111696)&#45;&#45;sayHello(19514448) -->
<g id="edge24" class="edge"><title>f_call(20111696)&#45;&#45;sayHello(19514448)</title>
<path fill="none" stroke="black" d="M995,-222.327C995,-211.109 995,-196.884 995,-185.667"/>
</g>
<!-- str(19496912) -->
<g id="node27" class="node"><title>str(19496912)</title>
<ellipse fill="none" stroke="black" cx="1207" cy="-167" rx="82.939" ry="18.3848"/>
<text text-anchor="middle" x="1207" y="-163.4" font-family="Times Roman,serif" font-size="14.00">str(19496912)</text>
</g>
<!-- f_call(20111696)&#45;&#45;str(19496912) -->
<g id="edge26" class="edge"><title>f_call(20111696)&#45;&#45;str(19496912)</title>
<path fill="none" stroke="black" d="M1041.52,-224.76C1077.36,-212.252 1126.6,-195.064 1162.04,-182.694"/>
</g>
<!--  &#160;&quot;Compile&quot;(19514784) -->
<g id="node29" class="node"><title> &#160;&quot;Compile&quot;(19514784)</title>
<ellipse fill="none" stroke="black" cx="1207" cy="-93" rx="123.243" ry="18.3848"/>
<text text-anchor="middle" x="1207" y="-89.4" font-family="Times Roman,serif" font-size="14.00"> &#160;&quot;Compile&quot;(19514784)</text>
</g>
<!-- str(19496912)&#45;&#45; &#160;&quot;Compile&quot;(19514784) -->
<g id="edge28" class="edge"><title>str(19496912)&#45;&#45; &#160;&quot;Compile&quot;(19514784)</title>
<path fill="none" stroke="black" d="M1207,-148.327C1207,-137.109 1207,-122.884 1207,-111.667"/>
</g>
</g>
</svg>
